<svg xmlns="http://www.w3.org/2000/svg" width="820" height="660" viewBox="0 0 820 660" fill="none"><g opacity="0.0608724" filter="url(#filter0_f)"><ellipse cx="409.5" cy="606.5" rx="280.5" ry="3.5" fill="black"></ellipse></g><g opacity="0.16031" filter="url(#filter1_f)"><ellipse cx="409.5" cy="617.5" rx="232.221" ry="3.5" fill="black"></ellipse></g><path d="M293.439 581.85C297.322 581.85 300.973 579.999 303.267 576.866L409.816 431.398L513.683 576.75C515.97 579.951 519.661 581.85 523.595 581.85H680.602C690.733 581.85 696.438 570.204 690.228 562.2L507.472 326.619L687.628 98.7383C693.943 90.7504 688.253 79 678.071 79H524.471C520.549 79 516.866 80.8887 514.577 84.0742L412.056 226.765L309.981 84.094C307.693 80.8969 304.004 79 300.073 79H143.068C132.936 79 127.232 90.6483 133.444 98.6525L313.504 330.649L130.646 562.115C124.335 570.104 130.025 581.85 140.206 581.85H293.439Z" fill="white"></path><mask id="mask0" maskUnits="userSpaceOnUse" x="128" y="79" width="565" height="503"><path d="M293.439 581.85C297.322 581.85 300.973 579.999 303.267 576.866L409.816 431.398L513.683 576.75C515.97 579.951 519.661 581.85 523.595 581.85H680.602C690.733 581.85 696.438 570.204 690.228 562.2L507.472 326.619L687.628 98.7383C693.943 90.7504 688.253 79 678.071 79H524.471C520.549 79 516.866 80.8887 514.577 84.0742L412.056 226.765L309.981 84.094C307.693 80.8969 304.004 79 300.073 79H143.068C132.936 79 127.232 90.6483 133.444 98.6525L313.504 330.649L130.646 562.115C124.335 570.104 130.025 581.85 140.206 581.85H293.439Z" fill="white"></path></mask><g mask="url(#mask0)"><g opacity="0.1"><path d="M289.658 571.391C281.573 571.835 257.345 558.471 257.345 558.471C257.345 558.471 279.981 542.569 288.067 542.126C291.906 541.985 295.647 543.357 298.484 545.946C301.321 548.536 303.029 552.136 303.238 555.972C303.447 559.808 302.142 563.572 299.604 566.455C297.065 569.339 293.496 571.11 289.664 571.387L289.658 571.391Z" fill="black"></path><path d="M234.903 607.238C234.903 607.238 226.587 538.915 257.363 494.776C270.277 476.248 277.206 454.173 276.443 431.626C276.059 420.916 274.69 410.264 272.355 399.805" stroke="black" stroke-width="2" stroke-miterlimit="10"></path><path d="M291.593 371.88C290.254 379.86 271.947 400.598 271.947 400.598C271.947 400.598 261.375 375.027 262.685 367.058C262.979 365.14 263.651 363.298 264.662 361.641C265.673 359.984 267.003 358.544 268.575 357.405C270.147 356.267 271.93 355.452 273.819 355.008C275.709 354.564 277.668 354.499 279.583 354.819C281.498 355.138 283.33 355.835 284.973 356.868C286.616 357.901 288.038 359.251 289.155 360.838C290.273 362.426 291.064 364.219 291.482 366.115C291.901 368.01 291.938 369.97 291.593 371.88Z" fill="black"></path><path d="M308.103 420.079C302.645 426.055 276.002 433.506 276.002 433.506C276.002 433.506 281.008 406.296 286.456 400.308C287.754 398.887 289.318 397.736 291.061 396.92C292.803 396.104 294.689 395.639 296.611 395.552C298.533 395.464 300.454 395.757 302.263 396.411C304.072 397.066 305.734 398.071 307.155 399.369C308.576 400.666 309.727 402.231 310.543 403.973C311.359 405.715 311.824 407.601 311.911 409.523C311.999 411.445 311.706 413.366 311.051 415.175C310.396 416.984 309.392 418.646 308.094 420.067L308.103 420.079Z" fill="black"></path><path d="M294.448 495.441C286.72 497.846 259.941 490.841 259.941 490.841C259.941 490.841 277.993 469.877 285.72 467.472C289.383 466.474 293.29 466.937 296.619 468.762C299.947 470.588 302.438 473.634 303.565 477.259C304.693 480.883 304.37 484.805 302.664 488.196C300.959 491.588 298.004 494.185 294.421 495.441L294.448 495.441Z" fill="black"></path><path d="M271.292 550.169C264.079 553.846 236.524 551.451 236.524 551.451C236.524 551.451 250.772 527.738 257.97 524.053C261.433 522.287 265.455 521.969 269.152 523.168C272.849 524.368 275.918 526.987 277.684 530.449C279.45 533.912 279.768 537.934 278.569 541.631C277.369 545.328 274.75 548.397 271.288 550.163L271.292 550.169Z" fill="black"></path><path d="M245.406 429.99C250.202 436.507 275.914 446.721 275.914 446.721C275.914 446.721 273.791 419.14 269 412.619C266.697 409.49 263.245 407.404 259.403 406.821C255.562 406.237 251.646 407.204 248.518 409.507C245.389 411.811 243.303 415.263 242.72 419.104C242.136 422.945 243.102 426.861 245.406 429.99Z" fill="black"></path><path d="M219.116 494.319C225.643 499.099 253.235 501.146 253.235 501.146C253.235 501.146 242.969 475.462 236.438 470.676C233.301 468.401 229.392 467.461 225.564 468.061C221.736 468.661 218.302 470.753 216.012 473.878C213.723 477.003 212.764 480.908 213.345 484.739C213.927 488.569 216.002 492.014 219.116 494.319Z" fill="black"></path><path d="M202.142 560.339C207.768 566.155 234.621 572.84 234.621 572.84C234.621 572.84 228.835 545.785 223.209 539.968C220.491 537.254 216.814 535.716 212.973 535.685C209.131 535.655 205.431 537.134 202.669 539.804C199.907 542.475 198.305 546.123 198.206 549.964C198.107 553.804 199.521 557.53 202.142 560.339Z" fill="black"></path></g><g opacity="0.1"><path d="M137.209 543.356H135.44V583H137.209V543.356Z" fill="black"></path><path d="M121.726 558.214C132.033 565.634 136.326 577.237 136.326 577.237C136.326 577.237 123.907 576.813 113.597 569.394C103.287 561.974 99 550.373 99 550.373C99 550.373 111.421 550.798 121.726 558.214Z" fill="black"></path><path d="M128.378 543.269C133.989 547.304 136.326 553.623 136.326 553.623C136.326 553.623 129.552 553.39 123.955 549.354C118.359 545.319 116.025 539 116.025 539C116.025 539 122.77 539.23 128.378 543.269Z" fill="black"></path><path d="M144.477 553.3C138.033 560.346 136.67 569.554 136.67 569.554C136.67 569.554 145.755 567.335 152.193 560.287C158.631 553.238 160 544.032 160 544.032C160 544.032 150.92 546.254 144.477 553.3Z" fill="black"></path></g><path d="M354 585.332C354 622.887 331.614 636 304 636C276.386 636 254 622.887 254 585.332C254 547.776 304 500 304 500C304 500 354 547.776 354 585.332Z" fill="#68A1AC"></path><path d="M295 577.685C295 598.672 282.464 606 267 606C251.536 606 239 598.672 239 577.685C239 556.699 267 530 267 530C267 530 295 556.699 295 577.685Z" fill="#89C5CC"></path><path fill-rule="evenodd" clip-rule="evenodd" d="M540.398 392.139C522.515 410.736 513.876 436.531 507.035 460.781C499.394 487.865 494.347 515.368 494.154 543.527C494.027 562.028 493.523 580.644 494.604 599.124C494.987 605.687 495.642 612.261 496.683 618.754C496.769 619.287 499.098 633.784 501.326 630.406C502.594 628.485 498.939 615.368 498.663 613.183C497.109 600.878 496.748 588.482 496.824 576.088C496.948 555.681 496.346 535.379 498.416 515.048C498.725 512.012 498.969 508.824 499.691 505.854C500.457 502.697 499.481 504.075 501.977 502.826C504.402 501.61 507.398 501.784 509.914 500.26C519.895 494.213 525 478.68 528.973 468.488C533.518 456.834 536.28 444.406 538.487 432.141C540.107 423.13 541.265 414.174 541.92 405.046C542.127 402.17 542.139 399.161 542.705 396.333C542.857 395.57 543.622 394.22 543.594 393.545C543.535 392.115 542.672 391.274 542.601 390.072C541.852 390.745 541.117 391.435 540.398 392.139Z" fill="#68A1AC"></path><path fill-rule="evenodd" clip-rule="evenodd" d="M489.849 419.493C479.721 437.09 478.018 458.43 477.396 478.248C476.7 500.383 478.065 522.345 483.261 543.888C486.676 558.042 489.824 572.355 494.156 586.263C495.695 591.203 497.442 596.1 499.469 600.861C499.636 601.252 504.166 611.881 505.227 608.878C505.831 607.171 500.55 597.846 499.924 596.23C496.403 587.127 493.774 577.729 491.48 568.249C487.703 552.64 483.39 537.249 481.112 521.329C480.772 518.952 480.353 516.471 480.341 514.066C480.327 511.509 479.843 512.747 481.512 511.319C483.133 509.93 485.455 509.494 487.087 507.853C493.562 501.34 494.513 488.509 495.613 479.971C496.873 470.208 496.624 460.192 495.981 450.406C495.508 443.217 494.693 436.157 493.461 429.062C493.073 426.826 492.512 424.526 492.407 422.258C492.378 421.647 492.706 420.471 492.557 419.96C492.241 418.879 491.421 418.401 491.139 417.496C490.695 418.153 490.265 418.819 489.849 419.493Z" fill="#89C5CC"></path><path fill-rule="evenodd" clip-rule="evenodd" d="M529.783 142.941C519.37 166.547 520.109 193.74 522.007 218.864C524.127 246.926 528.826 274.49 538.31 301.005C544.541 318.426 550.457 336.084 557.815 353.07C560.428 359.102 563.299 365.053 566.506 370.793C566.769 371.265 573.933 384.081 574.866 380.144C575.398 377.904 567.463 366.839 566.453 364.882C560.77 353.857 556.177 342.338 551.994 330.671C545.107 311.462 537.573 292.6 532.538 272.793C531.786 269.836 530.921 266.757 530.58 263.72C530.216 260.492 529.772 262.121 531.687 260.091C533.548 258.117 536.422 257.252 538.262 254.956C545.561 245.851 545.024 229.51 545.258 218.574C545.527 206.067 543.856 193.446 541.718 181.169C540.147 172.149 538.16 163.339 535.643 154.542C534.85 151.769 533.829 148.939 533.389 146.089C533.271 145.32 533.526 143.789 533.268 143.164C532.722 141.841 531.622 141.348 531.143 140.244C530.671 141.133 530.217 142.033 529.783 142.941Z" fill="#68A1AC"></path><path fill-rule="evenodd" clip-rule="evenodd" d="M470.079 216.286C475.826 229.742 487.379 239.967 498.523 248.91C510.97 258.9 524.21 267.627 538.869 273.967C548.499 278.131 558.106 282.519 567.993 286.048C571.505 287.302 575.082 288.417 578.702 289.312C579 289.385 587.084 291.38 585.814 289.469C585.092 288.381 577.434 287.384 576.232 287.044C569.464 285.129 562.913 282.571 556.459 279.786C545.833 275.2 535.101 271.017 524.945 265.432C523.429 264.598 521.818 263.765 520.428 262.73C518.949 261.631 519.452 262.445 519.353 260.866C519.256 259.33 520.01 257.804 519.772 256.153C518.826 249.603 511.848 243.497 507.407 239.165C502.33 234.21 496.453 230.015 490.539 226.146C486.194 223.304 481.774 220.715 477.155 218.351C475.698 217.606 474.131 216.933 472.779 216.011C472.415 215.762 471.88 215.064 471.521 214.929C470.761 214.643 470.131 214.907 469.488 214.678C469.673 215.218 469.871 215.754 470.079 216.286Z" fill="#89C5CC"></path><path d="M257.923 301.46C252.558 301.754 236.483 292.887 236.483 292.887C236.483 292.887 251.502 282.336 256.867 282.042C259.414 281.949 261.896 282.859 263.778 284.577C265.661 286.295 266.794 288.684 266.933 291.229C267.072 293.774 266.206 296.272 264.521 298.185C262.837 300.098 260.469 301.273 257.927 301.457L257.923 301.46Z" fill="#68A1AC"></path><g opacity="0.1"><path d="M220.506 326.294C220.506 326.294 233.834 282.619 264.366 264.114C277.18 256.351 287.321 244.837 292.919 230.94C295.562 224.343 297.594 217.517 298.988 210.548" stroke="black" stroke-width="2" stroke-miterlimit="10"></path><path d="M286.683 274.5C281.35 273.882 267.005 262.432 267.005 262.432C267.005 262.432 283.592 254.57 288.924 255.189C291.485 255.486 293.823 256.788 295.424 258.809C297.024 260.83 297.757 263.404 297.459 265.965C297.162 268.526 295.86 270.864 293.839 272.465C291.818 274.065 289.244 274.797 286.683 274.5Z" fill="black"></path><path d="M241.288 253.555C243.973 258.224 260.147 266.874 260.147 266.874C260.147 266.874 260.825 248.527 258.151 243.875C257.528 242.745 256.685 241.75 255.673 240.95C254.661 240.149 253.5 239.557 252.257 239.21C251.014 238.862 249.715 238.766 248.434 238.925C247.153 239.085 245.917 239.499 244.798 240.141C243.679 240.784 242.699 241.643 241.915 242.668C241.131 243.693 240.559 244.864 240.232 246.112C239.906 247.361 239.831 248.662 240.012 249.94C240.193 251.218 240.627 252.446 241.288 253.555Z" fill="black"></path><path d="M317.624 200.879C314.67 205.361 297.988 213.016 297.988 213.016C297.988 213.016 298.436 194.663 301.385 190.184C302.805 188.03 305.022 186.528 307.548 186.009C310.075 185.489 312.705 185.994 314.859 187.414C317.013 188.833 318.515 191.05 319.034 193.577C319.554 196.104 319.048 198.733 317.629 200.887L317.624 200.879Z" fill="black"></path><path d="M315.231 232.448C310.31 234.607 292.145 231.964 292.145 231.964C292.145 231.964 302.494 216.802 307.411 214.646C308.583 214.109 309.851 213.811 311.14 213.768C312.429 213.726 313.713 213.941 314.918 214.399C316.123 214.858 317.225 215.552 318.16 216.441C319.094 217.33 319.842 218.395 320.361 219.576C320.88 220.757 321.158 222.029 321.181 223.318C321.203 224.607 320.969 225.888 320.491 227.086C320.014 228.284 319.303 229.375 318.4 230.296C317.497 231.216 316.42 231.948 315.231 232.448Z" fill="black"></path><path d="M274.529 221.6C275.689 226.845 288.536 239.952 288.536 239.952C288.536 239.952 294.664 222.641 293.515 217.406C292.926 214.922 291.384 212.769 289.221 211.412C287.059 210.055 284.449 209.603 281.956 210.154C279.464 210.705 277.287 212.214 275.898 214.356C274.508 216.497 274.016 219.099 274.529 221.6Z" fill="black"></path></g><path d="M213.247 289.045C215.093 294.087 229.58 305.356 229.58 305.356C229.58 305.356 233.348 287.39 231.498 282.35C230.581 279.968 228.764 278.042 226.439 276.989C224.114 275.936 221.468 275.839 219.073 276.721C216.677 277.602 214.725 279.39 213.637 281.699C212.549 284.008 212.413 286.652 213.258 289.061L213.247 289.045Z" fill="#68A1AC"></path><path d="M245.737 287.379C240.951 289.818 222.668 288.229 222.668 288.229C222.668 288.229 232.122 272.496 236.898 270.051C239.195 268.879 241.864 268.668 244.317 269.464C246.77 270.26 248.806 271.998 249.978 274.295C251.15 276.592 251.361 279.261 250.565 281.714C249.769 284.167 248.031 286.203 245.734 287.375L245.737 287.379Z" fill="#89C5CC"></path><path d="M221.593 325.243C221.593 325.243 215.105 271.942 239.115 237.507C249.189 223.053 254.595 205.832 254 188.241C253.7 179.886 252.632 171.577 250.811 163.417" stroke="#89C5CC" stroke-width="2" stroke-miterlimit="10"></path><path d="M265.961 143.943C264.916 150.168 250.634 166.347 250.634 166.347C250.634 166.347 242.386 146.398 243.409 140.181C243.638 138.684 244.162 137.248 244.951 135.955C245.739 134.662 246.777 133.539 248.003 132.651C249.23 131.762 250.621 131.127 252.095 130.78C253.569 130.434 255.097 130.384 256.591 130.633C258.085 130.882 259.514 131.425 260.796 132.232C262.078 133.038 263.187 134.091 264.059 135.329C264.931 136.567 265.548 137.966 265.874 139.445C266.201 140.924 266.23 142.453 265.961 143.943Z" fill="#89C5CC"></path><path d="M278.698 179.234C274.44 183.896 253.655 189.708 253.655 189.708C253.655 189.708 257.56 168.481 261.811 163.809C262.823 162.701 264.043 161.803 265.403 161.166C266.762 160.529 268.233 160.167 269.733 160.099C271.232 160.031 272.73 160.259 274.142 160.769C275.553 161.28 276.85 162.064 277.958 163.077C279.067 164.089 279.965 165.309 280.602 166.669C281.238 168.028 281.601 169.499 281.669 170.999C281.737 172.498 281.509 173.996 280.998 175.408C280.487 176.819 279.703 178.116 278.691 179.224L278.698 179.234Z" fill="#89C5CC"></path><path d="M268.046 238.026C262.017 239.902 241.126 234.438 241.126 234.438C241.126 234.438 255.209 218.083 261.237 216.207C264.095 215.428 267.143 215.789 269.74 217.213C272.336 218.637 274.279 221.013 275.159 223.841C276.039 226.669 275.787 229.728 274.456 232.374C273.125 235.02 270.82 237.046 268.025 238.026L268.046 238.026Z" fill="#89C5CC"></path><path d="M229.784 186.965C233.526 192.05 253.585 200.018 253.585 200.018C253.585 200.018 251.928 178.501 248.191 173.413C246.394 170.972 243.701 169.345 240.704 168.89C237.707 168.435 234.653 169.189 232.212 170.986C229.771 172.783 228.144 175.476 227.689 178.473C227.233 181.47 227.987 184.525 229.784 186.965Z" fill="#89C5CC"></path><path d="M211.119 250.322C215.45 253.494 233.757 254.852 233.757 254.852C233.757 254.852 226.945 237.811 222.612 234.635C220.531 233.126 217.937 232.502 215.398 232.9C212.858 233.299 210.579 234.686 209.06 236.76C207.541 238.834 206.905 241.425 207.29 243.966C207.676 246.508 209.053 248.793 211.119 250.322Z" fill="#89C5CC"></path><path d="M199.857 294.126C203.589 297.985 221.406 302.421 221.406 302.421C221.406 302.421 217.567 284.47 213.835 280.61C212.031 278.81 209.592 277.789 207.043 277.769C204.494 277.748 202.039 278.73 200.206 280.502C198.374 282.274 197.31 284.694 197.245 287.242C197.18 289.791 198.117 292.262 199.857 294.126Z" fill="#89C5CC"></path><path fill-rule="evenodd" clip-rule="evenodd" d="M342.393 216.626C345.75 214.614 352.871 208.881 356.228 209.122C358.389 209.277 354.744 215.999 354.175 217.338C351.975 222.515 349.2 227.397 346.312 232.216C341.104 240.908 333.815 247.47 325.335 253.067C320.971 255.947 316.141 258.677 310.846 259.33C308.408 259.631 306.009 258.795 303.666 258.947C300.938 259.123 302.56 258.721 300.538 260.579C297.731 263.159 295.451 267.085 293.291 270.209C283.377 284.553 239.392 364.128 233.532 380.598C233.013 382.058 230.892 381.519 231.562 379.752C235.109 370.385 267.818 309.141 279.318 289.47C290.817 269.798 301.269 252.55 306.774 246.423C313.452 238.99 323.178 230.805 331.009 224.586C334.646 221.697 338.403 219.016 342.393 216.626Z" fill="#69A1AC"></path></g><path fill-rule="evenodd" clip-rule="evenodd" d="M611.48 266.479C611.525 251.588 623.487 239.51 638.145 239.556C642.685 239.57 647.164 240.767 651.099 243.019C652.739 243.959 653.317 246.072 652.396 247.736C651.471 249.402 649.392 249.992 647.752 249.053C644.831 247.381 641.502 246.492 638.125 246.481C627.226 246.448 618.331 255.428 618.298 266.5C618.284 270.799 619.589 274.901 622.07 278.363C623.176 279.91 622.842 282.076 621.32 283.2C619.798 284.326 617.666 283.985 616.558 282.438C613.218 277.779 611.463 272.26 611.48 266.479Z" fill="#9B26E8"></path><path fill-rule="evenodd" clip-rule="evenodd" d="M121.173 229.744C112.822 227.479 107.97 218.476 110.358 209.674C111.097 206.948 112.491 204.437 114.389 202.411C115.181 201.566 116.46 201.537 117.246 202.34C118.032 203.146 118.028 204.484 117.237 205.329C115.827 206.833 114.792 208.7 114.242 210.727C112.467 217.272 116.074 223.967 122.283 225.65C124.694 226.304 127.207 226.137 129.55 225.166C130.596 224.734 131.758 225.26 132.144 226.344C132.53 227.428 131.996 228.657 130.949 229.091C127.796 230.398 124.415 230.623 121.173 229.744Z" fill="#9B26E8"></path><path fill-rule="evenodd" clip-rule="evenodd" d="M754.562 2.16403C777.461 8.3704 791.016 32.1189 784.778 55.1034C782.846 62.2217 779.118 68.7567 773.996 74.0041C771.86 76.1904 768.364 76.2266 766.191 74.0951C764.015 71.9572 763.983 68.4523 766.118 66.2647C769.92 62.3699 772.69 57.5121 774.127 52.2172C778.765 35.1275 768.687 17.4683 751.661 12.8542C745.049 11.0618 738.187 11.4194 731.815 13.8848C728.968 14.9841 725.775 13.5666 724.686 10.7152C723.594 7.86221 725.015 4.6579 727.862 3.55602C736.438 0.235494 745.671 -0.245285 754.562 2.16403Z" fill="#E3227A"></path><path fill-rule="evenodd" clip-rule="evenodd" d="M370.235 535.76C383.029 535.352 393.768 545.363 394.173 558.076C394.298 562.014 393.406 565.933 391.59 569.413C390.832 570.864 389.035 571.428 387.577 570.679C386.118 569.927 385.548 568.142 386.305 566.691C387.653 564.108 388.316 561.195 388.223 558.266C387.921 548.814 379.937 541.369 370.424 541.673C366.73 541.79 363.246 543.045 360.346 545.299C359.051 546.305 357.18 546.08 356.168 544.794C355.155 543.508 355.383 541.649 356.678 540.642C360.58 537.606 365.268 535.918 370.235 535.76Z" fill="#E3227A"></path><path d="M739.633 146.314C737.156 152.482 741.137 174.86 741.137 174.86C741.137 174.86 759.497 161.454 761.974 155.292C763.165 152.327 763.129 149.012 761.875 146.074C760.62 143.136 758.25 140.817 755.286 139.626C752.322 138.436 749.006 138.471 746.068 139.726C743.13 140.98 740.811 143.35 739.621 146.314H739.633Z" fill="#6C63FF"></path><path d="M707.439 173.066C708.714 179.597 724.222 196.217 724.222 196.217C724.222 196.217 732.348 174.987 731.073 168.462C730.792 166.89 730.201 165.39 729.335 164.048C728.469 162.707 727.344 161.551 726.027 160.649C724.709 159.746 723.226 159.114 721.662 158.79C720.098 158.467 718.486 158.457 716.918 158.762C715.351 159.068 713.86 159.682 712.532 160.569C711.204 161.456 710.066 162.598 709.184 163.929C708.302 165.26 707.693 166.754 707.394 168.322C707.094 169.891 707.109 171.503 707.439 173.066Z" fill="#359A75"></path><path d="M684.789 231.789C689.182 236.779 710.955 243.298 710.955 243.298C710.955 243.298 707.252 220.872 702.859 215.882C700.75 213.486 697.775 212.026 694.589 211.823C691.403 211.62 688.267 212.691 685.871 214.801C683.475 216.91 682.014 219.885 681.812 223.071C681.609 226.257 682.68 229.393 684.789 231.789Z" fill="#6C63FF"></path><path d="M677.647 280.079C681.133 285.746 701.499 295.847 701.499 295.847C701.499 295.847 701.638 273.119 698.152 267.452C696.45 264.794 693.773 262.911 690.696 262.207C687.619 261.504 684.389 262.037 681.701 263.691C679.013 265.345 677.082 267.989 676.324 271.053C675.566 274.117 676.041 277.356 677.647 280.073V280.079Z" fill="#6C63FF"></path><path d="M747.198 206.832C741.042 209.351 718.64 205.527 718.64 205.527C718.64 205.527 731.931 187.076 738.07 184.551C741.013 183.397 744.292 183.448 747.199 184.691C750.105 185.934 752.406 188.271 753.605 191.196C754.804 194.122 754.804 197.401 753.605 200.327C752.406 203.252 750.105 205.589 747.198 206.832Z" fill="#6C63FF"></path><path d="M738.134 263.205C731.489 263.767 711.274 253.412 711.274 253.412C711.274 253.412 729.465 239.776 736.086 239.214C737.676 239.052 739.283 239.207 740.812 239.672C742.341 240.137 743.762 240.901 744.993 241.921C746.223 242.94 747.239 244.195 747.98 245.611C748.72 247.027 749.172 248.576 749.308 250.168C749.444 251.761 749.261 253.364 748.771 254.885C748.281 256.406 747.493 257.815 746.453 259.028C745.413 260.242 744.142 261.236 742.714 261.953C741.286 262.67 739.729 263.096 738.134 263.205Z" fill="#6C63FF"></path><path d="M721.805 316.781C715.371 318.461 693.682 311.67 693.682 311.67C693.682 311.67 709.305 295.158 715.739 293.485C718.81 292.737 722.052 293.228 724.765 294.85C727.477 296.473 729.442 299.097 730.236 302.157C731.029 305.216 730.587 308.465 729.005 311.202C727.423 313.938 724.828 315.942 721.781 316.781H721.805Z" fill="#6C63FF"></path><path opacity="0.25" d="M739.633 146.314C737.156 152.482 741.137 174.86 741.137 174.86C741.137 174.86 759.497 161.454 761.974 155.292C763.165 152.327 763.129 149.012 761.875 146.074C760.62 143.136 758.25 140.817 755.286 139.626C752.322 138.436 749.006 138.471 746.068 139.726C743.13 140.98 740.811 143.35 739.621 146.314H739.633Z" fill="black"></path><path opacity="0.25" d="M684.789 231.789C689.182 236.779 710.955 243.298 710.955 243.298C710.955 243.298 707.252 220.872 702.859 215.882C700.75 213.486 697.775 212.026 694.589 211.823C691.403 211.62 688.267 212.691 685.871 214.801C683.475 216.91 682.014 219.885 681.812 223.071C681.609 226.257 682.68 229.393 684.789 231.789Z" fill="black"></path><path opacity="0.25" d="M677.647 280.079C681.133 285.746 701.499 295.847 701.499 295.847C701.499 295.847 701.638 273.119 698.152 267.452C696.45 264.794 693.773 262.911 690.696 262.207C687.619 261.504 684.389 262.037 681.701 263.691C679.013 265.345 677.082 267.989 676.324 271.053C675.566 274.117 676.041 277.356 677.647 280.073V280.079Z" fill="black"></path><path opacity="0.25" d="M747.198 206.832C741.042 209.351 718.64 205.527 718.64 205.527C718.64 205.527 731.931 187.076 738.07 184.551C741.013 183.397 744.292 183.448 747.199 184.691C750.105 185.934 752.406 188.271 753.605 191.196C754.804 194.122 754.804 197.401 753.605 200.327C752.406 203.252 750.105 205.589 747.198 206.832Z" fill="black"></path><path opacity="0.25" d="M738.134 263.205C731.489 263.767 711.274 253.412 711.274 253.412C711.274 253.412 729.465 239.776 736.086 239.214C737.676 239.052 739.283 239.207 740.812 239.672C742.341 240.137 743.762 240.901 744.993 241.921C746.223 242.94 747.239 244.195 747.98 245.611C748.72 247.027 749.172 248.576 749.308 250.168C749.444 251.761 749.261 253.364 748.771 254.885C748.281 256.406 747.493 257.815 746.453 259.028C745.413 260.242 744.142 261.236 742.714 261.953C741.286 262.67 739.729 263.096 738.134 263.205Z" fill="black"></path><path opacity="0.25" d="M721.805 316.781C715.371 318.461 693.682 311.67 693.682 311.67C693.682 311.67 709.305 295.158 715.739 293.485C718.81 292.737 722.052 293.228 724.765 294.85C727.477 296.473 729.442 299.097 730.236 302.157C731.029 305.216 730.587 308.465 729.005 311.202C727.423 313.938 724.828 315.942 721.781 316.781H721.805Z" fill="black"></path><path d="M679 334C679 334 723.095 310.732 736.664 274.163C742.362 258.816 752.64 245.569 766.375 236.709C772.907 232.515 779.812 228.93 787 226" stroke="#57B894" stroke-width="2" stroke-miterlimit="10"></path><path d="M704.332 592.394L706.145 597.831L700.23 603.746L680.661 608.295L666.555 606.93L667.479 601.952C667.749 600.876 668.311 599.895 669.101 599.117C669.892 598.339 670.882 597.794 671.962 597.541C677.762 596.176 688.818 593.071 691.143 588.751L704.332 592.394Z" fill="#DB8B8B"></path><path opacity="0.1" d="M704.332 592.394L706.145 597.831L700.23 603.746L680.661 608.295L666.555 606.93L667.479 601.952C667.749 600.876 668.311 599.895 669.101 599.117C669.892 598.339 670.882 597.794 671.962 597.541C677.762 596.176 688.818 593.071 691.143 588.751L704.332 592.394Z" fill="black"></path><path d="M671.106 605.588L673.837 601.963L671.106 597.734C671.106 597.734 662.92 601.039 659.277 600.586C655.634 600.133 653.839 606.501 660.642 608.319C667.445 610.138 706.146 608.319 706.146 608.319C706.146 608.319 712.973 605.135 706.146 596.49L700.232 601.039C700.232 601.039 690.221 606.476 685.213 605.588H671.106Z" fill="#2E3037"></path><path d="M658.823 613.358L672.917 614.693L692.486 610.138L698.4 604.223L697.917 602.779L697.24 600.749L696.576 598.762L683.381 595.137C682.711 596.226 681.795 597.143 680.705 597.813C676.421 600.749 668.719 602.864 664.199 603.921C664.012 603.969 663.819 604.024 663.638 604.09C662.772 604.379 661.985 604.863 661.336 605.504C660.547 606.28 659.987 607.258 659.717 608.331L658.823 613.358Z" fill="#DB8B8B"></path><path opacity="0.1" d="M658.823 613.357L672.917 614.693L692.486 610.137L698.4 604.223L697.917 602.779L692.48 606.954C692.48 606.954 682.463 612.391 677.461 611.503H663.372L666.103 607.878L663.65 604.09C662.784 604.379 661.997 604.862 661.348 605.504C660.559 606.28 659.999 607.258 659.729 608.331L658.823 613.357Z" fill="black"></path><path d="M663.37 611.963L666.101 608.338L663.37 604.109C663.37 604.109 655.178 607.42 651.541 606.96C647.904 606.501 646.104 612.875 652.907 614.7C659.709 616.524 698.411 614.7 698.411 614.7C698.411 614.7 705.238 611.51 698.411 602.864L692.497 607.42C692.497 607.42 682.48 612.857 677.477 611.969L663.37 611.963Z" fill="#2E3037"></path><path d="M674.73 348.028C674.73 348.028 696.57 350.306 693.386 341.201C692.494 338.621 692.263 335.858 692.716 333.166C693.281 329.828 694.6 326.663 696.57 323.91L676.096 327.094C677.324 329.147 678.257 331.361 678.869 333.673C681.328 343.304 674.73 348.028 674.73 348.028Z" fill="#DB8B8B"></path><path d="M712.06 451.778C712.06 451.778 711.606 471.347 707.057 480.904L706.145 508.695C706.145 508.695 707.51 534.178 710.241 539.181C712.972 544.183 704.332 586.48 704.332 586.48V593.729C704.332 593.729 689.772 599.167 685.676 592.817L689.772 538.667L687.96 463.583L712.06 451.778Z" fill="#35323E"></path><path opacity="0.1" d="M712.066 451.778C712.066 451.778 711.613 471.347 707.064 480.904L706.152 508.695C706.152 508.695 707.517 534.178 710.248 539.181C712.979 544.183 704.333 586.48 704.333 586.48V593.729C704.333 593.729 689.773 599.167 685.677 592.817L689.773 538.667L687.961 463.583L712.066 451.778Z" fill="black"></path><path d="M721.165 388.983L723.895 396.263L726.167 411.735C726.475 413.89 726.264 416.088 725.552 418.146C724.839 420.203 723.646 422.061 722.071 423.564C716.634 429.002 709.329 440.402 709.329 440.402L700.708 414.466C700.708 414.466 709.354 413.1 707.988 407.186C706.623 401.271 707.082 390.348 707.082 390.348L721.165 388.983Z" fill="#6C63FF"></path><path opacity="0.1" d="M680.717 597.801C686.559 606.99 695.64 601.782 697.253 600.749L696.588 598.762L683.394 595.137C682.722 596.222 681.806 597.135 680.717 597.801Z" fill="black"></path><path d="M662.46 469.528C662.919 475.896 670.652 499.131 670.652 499.131L676.089 518.229C680.002 531.731 682.021 545.712 682.088 559.77C682.088 564.434 682.517 569.237 683.828 572.85C687.453 582.861 680.204 596.514 680.204 596.514C686.571 607.89 697.494 600.139 697.494 600.139V592.847C697.494 592.847 706.146 553.257 703.874 545.524C701.602 537.791 700.708 516.851 700.708 516.851V479.086C708.003 471.819 712.436 462.168 713.196 451.899C713.305 450.407 713.396 448.842 713.45 447.217C713.818 436.946 706.804 424.918 704.061 420.634C703.397 419.601 702.986 419.015 702.986 419.015L662.804 434.953L662.713 434.989V436.548V439.985L662.46 469.528Z" fill="#35323E"></path><path opacity="0.1" d="M676.112 327.094C677.34 329.147 678.274 331.361 678.885 333.673C681.11 334.518 683.482 334.909 685.86 334.822C688.239 334.734 690.575 334.171 692.732 333.166C693.298 329.828 694.616 326.663 696.587 323.91L676.112 327.094Z" fill="black"></path><path d="M685.211 333.927C675.408 333.927 667.461 325.98 667.461 316.177C667.461 306.374 675.408 298.427 685.211 298.427C695.014 298.427 702.961 306.374 702.961 316.177C702.961 325.98 695.014 333.927 685.211 333.927Z" fill="#DB8B8B"></path><path opacity="0.1" d="M662.459 439.967H662.646C681.725 443.888 705.68 424.005 705.68 424.005C705.036 422.923 704.482 421.789 704.024 420.616C703.36 419.583 702.949 418.997 702.949 418.997L662.767 434.934L662.664 436.529L662.459 439.967Z" fill="black"></path><path d="M666.102 440.402C666.102 440.402 656.545 442.215 651.995 449.507C650.682 451.696 649.079 453.698 647.229 455.458C646.817 455.838 646.498 456.308 646.299 456.832C646.099 457.356 646.024 457.92 646.079 458.478C646.134 459.036 646.318 459.573 646.616 460.048C646.914 460.523 647.318 460.923 647.797 461.215C651.421 463.384 657.294 464.719 664.713 458.605C677.478 448.141 666.102 440.402 666.102 440.402Z" fill="#DB8B8B"></path><path opacity="0.1" d="M680.209 356.219C680.209 356.219 689.307 355.307 691.585 378.947C693.863 402.588 697.5 408.074 697.5 408.074C697.5 408.074 699.777 420.356 694.316 427.636C688.854 434.916 678.39 450.388 678.39 450.388C678.39 450.388 667.008 453.578 664.737 442.202L678.844 415.807C678.844 415.807 681.115 406.708 675.66 400.334C670.204 393.961 666.102 351.67 680.209 356.219Z" fill="black"></path><path d="M679.296 354.854C679.296 354.854 688.4 353.942 690.672 377.607C692.944 401.271 696.587 406.739 696.587 406.739C696.587 406.739 698.864 419.021 693.403 426.301C687.941 433.581 677.477 449.029 677.477 449.029C677.477 449.029 666.101 452.219 663.824 440.843L677.93 414.466C677.93 414.466 680.208 405.367 674.747 398.993C669.285 392.62 665.189 350.305 679.296 354.854Z" fill="#6C63FF"></path><path opacity="0.1" d="M671.786 371.915C671.786 371.915 670.88 386.022 674.976 393.762C679.072 401.501 679.072 411.505 674.976 416.967" fill="black"></path><path opacity="0.1" d="M669.517 354.625C669.517 354.625 673.142 351 683.624 350.529C694.106 350.058 698.637 346.904 698.637 346.904" fill="black"></path><path opacity="0.1" d="M694.823 293.237C697.59 293.582 700.75 294.524 701.747 297.128C702.115 298.083 702.121 299.134 702.351 300.149C703.384 304.124 707.855 305.973 710.616 309.012C713.032 311.694 714.126 315.325 714.917 318.859C717.184 329.003 717.725 339.456 716.518 349.78C715.63 357.326 713.818 364.757 713.31 372.333C712.803 379.909 713.727 387.889 717.872 394.257C719.684 397 722.004 399.405 723.267 402.419C720.657 404.534 717.056 404.836 713.697 404.951C709.782 405.084 705.867 405.084 701.952 404.951C699.898 404.878 697.753 404.745 695.983 403.706C694.672 402.868 693.594 401.713 692.848 400.347C690.612 396.547 690.044 391.98 690.141 387.569C690.238 383.159 690.932 378.779 691.017 374.369C691.059 371.952 690.872 369.415 689.489 367.451C688.492 366.025 686.975 365.071 685.676 363.923C680.801 359.603 679.133 352.68 678.97 346.173C678.807 339.666 679.877 333.147 679.327 326.665C679.115 324.127 678.167 321.077 675.666 320.581C674.88 320.43 674.04 320.581 673.291 320.279C671.286 319.512 671.479 316.654 670.911 314.618C670.265 312.292 668.283 310.504 667.727 308.154C666.416 302.65 673.424 296.071 677.998 294.162C682.776 292.168 689.899 292.633 694.823 293.237Z" fill="black"></path><path d="M695.271 292.331C698.038 292.669 701.198 293.618 702.194 296.222C702.452 297.217 702.654 298.225 702.799 299.243C703.832 303.212 708.308 305.067 711.069 308.105C713.486 310.788 714.579 314.413 715.371 317.953C717.648 328.085 718.206 338.527 717.02 348.843C716.132 356.389 714.32 363.82 713.812 371.402C713.305 378.984 714.229 386.959 718.373 393.327C720.186 396.064 722.506 398.468 723.769 401.483C721.159 403.603 717.558 403.899 714.199 404.02C710.284 404.145 706.369 404.145 702.454 404.02C700.4 403.954 698.255 403.821 696.485 402.776C695.173 401.941 694.096 400.784 693.356 399.417C691.114 395.617 690.552 391.049 690.643 386.639C690.734 382.229 691.44 377.849 691.519 373.438C691.561 371.022 691.374 368.484 689.997 366.521C688.994 365.101 687.477 364.146 686.178 362.992C681.309 358.679 679.635 351.749 679.472 345.243C679.309 338.736 680.385 332.223 679.835 325.735C679.617 323.197 678.669 320.146 676.174 319.657C675.382 319.5 674.542 319.657 673.793 319.355C671.787 318.581 671.981 315.73 671.413 313.688C670.773 311.368 668.791 309.574 668.229 307.229C666.918 301.726 673.926 295.146 678.5 293.231C683.236 291.256 690.353 291.721 695.271 292.331Z" fill="#35323E"></path><path d="M685.61 335.951C685.61 335.951 713.819 291.298 711.106 247.171C709.964 228.654 714.525 210.209 724.717 194.706C729.566 187.362 735.079 180.478 741.187 174.141" stroke="#359A75" stroke-width="2" stroke-miterlimit="10"></path><path d="M739.636 146.314C737.159 152.482 741.14 174.86 741.14 174.86C741.14 174.86 759.5 161.454 761.977 155.292C763.168 152.327 763.132 149.012 761.877 146.074C760.623 143.136 758.253 140.817 755.289 139.626C752.325 138.436 749.009 138.471 746.071 139.726C743.133 140.98 740.814 143.35 739.623 146.314H739.636Z" fill="#359A75"></path><path d="M684.79 231.789C689.182 236.78 710.956 243.298 710.956 243.298C710.956 243.298 707.253 220.872 702.86 215.882C700.751 213.486 697.776 212.026 694.59 211.823C691.404 211.62 688.268 212.691 685.872 214.801C683.476 216.91 682.015 219.885 681.813 223.071C681.61 226.257 682.681 229.393 684.79 231.789Z" fill="#359A75"></path><path d="M677.647 280.079C681.133 285.746 701.499 295.847 701.499 295.847C701.499 295.847 701.638 273.119 698.152 267.452C696.45 264.794 693.773 262.911 690.696 262.207C687.619 261.504 684.389 262.037 681.701 263.691C679.013 265.345 677.082 267.989 676.324 271.053C675.566 274.117 676.041 277.356 677.647 280.073V280.079Z" fill="#359A75"></path><path d="M747.198 206.832C741.042 209.351 718.64 205.527 718.64 205.527C718.64 205.527 731.931 187.076 738.07 184.551C741.013 183.397 744.292 183.448 747.199 184.691C750.105 185.934 752.406 188.271 753.605 191.196C754.804 194.122 754.804 197.401 753.605 200.327C752.406 203.252 750.105 205.589 747.198 206.832Z" fill="#359A75"></path><path d="M738.135 263.205C731.49 263.767 711.275 253.412 711.275 253.412C711.275 253.412 729.466 239.776 736.087 239.214C737.677 239.052 739.284 239.207 740.813 239.672C742.342 240.137 743.763 240.901 744.994 241.921C746.224 242.94 747.24 244.195 747.981 245.611C748.721 247.027 749.173 248.576 749.309 250.168C749.445 251.761 749.262 253.364 748.772 254.885C748.282 256.407 747.494 257.815 746.454 259.028C745.414 260.242 744.143 261.236 742.715 261.953C741.287 262.67 739.73 263.096 738.135 263.205Z" fill="#359A75"></path><path d="M721.806 316.781C715.372 318.461 693.683 311.67 693.683 311.67C693.683 311.67 709.306 295.158 715.74 293.485C718.811 292.737 722.053 293.228 724.766 294.85C727.478 296.473 729.443 299.097 730.237 302.157C731.03 305.216 730.588 308.465 729.006 311.202C727.424 313.938 724.829 315.942 721.782 316.781H721.806Z" fill="#359A75"></path><path d="M791.619 205.031C787.593 209.021 783 228 783 228C783 228 801.787 223.844 805.818 219.874C806.797 218.931 807.583 217.8 808.129 216.546C808.675 215.291 808.97 213.939 808.998 212.568C809.026 211.197 808.785 209.834 808.291 208.558C807.796 207.281 807.057 206.118 806.117 205.135C805.176 204.152 804.053 203.368 802.812 202.83C801.572 202.292 800.238 202.01 798.889 202C797.541 201.991 796.203 202.253 794.955 202.774C793.707 203.294 792.573 204.061 791.619 205.031Z" fill="#57B894"></path><path d="M757.162 217.774C755.928 223.159 762.136 241 762.136 241C762.136 241 775.504 227.61 776.748 222.225C777.042 220.945 777.079 219.62 776.858 218.325C776.638 217.031 776.163 215.792 775.462 214.68C774.76 213.568 773.846 212.605 772.771 211.845C771.695 211.085 770.48 210.543 769.195 210.251C767.91 209.959 766.579 209.921 765.279 210.141C763.979 210.361 762.736 210.834 761.619 211.532C760.503 212.231 759.536 213.142 758.773 214.213C758.01 215.284 757.466 216.494 757.173 217.774H757.162Z" fill="#57B894"></path><path d="M719.354 254.976C721.028 260.383 735.529 273 735.529 273C735.529 273 740.319 254.245 738.645 248.838C737.77 246.331 735.972 244.267 733.628 243.08C731.284 241.893 728.578 241.675 726.079 242.473C723.58 243.27 721.483 245.021 720.231 247.356C718.978 249.691 718.667 252.428 719.364 254.992L719.354 254.976Z" fill="#57B894"></path><path d="M697.09 290.582C697.871 296.172 710.558 311 710.558 311C710.558 311 718.719 293.426 717.949 287.841C717.574 285.157 716.116 282.728 713.896 281.087C711.676 279.447 708.875 278.729 706.11 279.092C703.344 279.456 700.841 280.871 699.151 283.025C697.46 285.18 696.721 287.899 697.095 290.582H697.09Z" fill="#57B894"></path><path d="M776.565 257.996C770.962 257.832 755 246.858 755 246.858C755 246.858 771.538 236.844 777.14 237.002C779.831 237.081 782.38 238.263 784.229 240.287C786.077 242.311 787.072 245.013 786.996 247.797C786.92 250.581 785.778 253.219 783.822 255.132C781.865 257.045 779.255 258.075 776.565 257.996Z" fill="#57B894"></path><path d="M749.92 298.439C744.755 296.537 733 281.037 733 281.037C733 281.037 751.206 276.569 756.376 278.472C758.845 279.395 760.871 281.324 762.011 283.838C763.151 286.351 763.312 289.244 762.459 291.883C761.605 294.523 759.807 296.694 757.457 297.923C755.108 299.151 752.397 299.337 749.92 298.439Z" fill="#57B894"></path><path d="M719.22 333.895C713.61 332.998 699 320.486 699 320.486C699 320.486 716.937 313.179 722.547 314.076C725.203 314.548 727.562 316.017 729.118 318.169C730.674 320.32 731.301 322.982 730.865 325.58C730.428 328.178 728.964 330.505 726.786 332.061C724.608 333.616 721.891 334.275 719.22 333.895Z" fill="#57B894"></path><path d="M704.332 592.394L706.145 597.831L700.23 603.746L680.661 608.295L666.555 606.93L667.479 601.952C667.749 600.876 668.311 599.895 669.101 599.117C669.892 598.339 670.882 597.794 671.962 597.541C677.762 596.176 688.818 593.071 691.143 588.751L704.332 592.394Z" fill="#DB8B8B"></path><path opacity="0.1" d="M704.332 592.394L706.145 597.831L700.23 603.746L680.661 608.295L666.555 606.93L667.479 601.952C667.749 600.876 668.311 599.895 669.101 599.117C669.892 598.339 670.882 597.794 671.962 597.541C677.762 596.176 688.818 593.071 691.143 588.751L704.332 592.394Z" fill="#FFB8B8"></path><path d="M671.106 605.588L673.837 601.963L671.106 597.734C671.106 597.734 662.92 601.039 659.277 600.586C655.634 600.133 653.839 606.501 660.642 608.319C667.445 610.138 706.146 608.319 706.146 608.319C706.146 608.319 712.973 605.135 706.146 596.49L700.232 601.039C700.232 601.039 690.221 606.476 685.213 605.588H671.106Z" fill="#2E3037"></path><path d="M658.823 613.358L672.917 614.693L692.486 610.138L698.4 604.223L697.917 602.779L697.24 600.749L696.576 598.762L683.381 595.137C682.711 596.226 681.795 597.143 680.705 597.813C676.421 600.749 668.719 602.864 664.199 603.921C664.012 603.969 663.819 604.024 663.638 604.09C662.772 604.379 661.985 604.863 661.336 605.504C660.547 606.28 659.987 607.258 659.717 608.331L658.823 613.358Z" fill="#FFB8B8"></path><path opacity="0.1" d="M658.823 613.357L672.917 614.693L692.486 610.137L698.4 604.223L697.917 602.779L692.48 606.954C692.48 606.954 682.463 612.391 677.461 611.503H663.372L666.103 607.878L663.65 604.09C662.784 604.379 661.997 604.862 661.348 605.504C660.559 606.28 659.999 607.258 659.729 608.331L658.823 613.357Z" fill="black"></path><path d="M663.37 611.963L666.101 608.338L663.37 604.109C663.37 604.109 655.178 607.42 651.541 606.96C647.904 606.501 646.104 612.875 652.907 614.7C659.709 616.524 698.411 614.7 698.411 614.7C698.411 614.7 705.238 611.51 698.411 602.864L692.497 607.42C692.497 607.42 682.48 612.857 677.477 611.969L663.37 611.963Z" fill="#2E3037"></path><path d="M674.73 348.028C674.73 348.028 696.57 350.306 693.386 341.201C692.494 338.621 692.263 335.858 692.716 333.166C693.281 329.828 694.6 326.663 696.57 323.91L676.096 327.094C677.324 329.147 678.257 331.361 678.869 333.673C681.328 343.304 674.73 348.028 674.73 348.028Z" fill="#DB8B8B"></path><path d="M712.066 451.778C712.066 451.778 711.613 471.347 707.064 480.904L706.152 508.695C706.152 508.695 707.517 534.178 710.248 539.181C712.979 544.183 704.333 586.48 704.333 586.48V593.729C704.333 593.729 689.773 599.167 685.677 592.817L689.773 538.667L687.961 463.583L712.066 451.778Z" fill="#1226BC"></path><path opacity="0.1" d="M680.717 597.801C686.559 606.99 695.64 601.782 697.253 600.749L696.588 598.762L683.394 595.137C682.722 596.222 681.806 597.135 680.717 597.801Z" fill="black"></path><path d="M714.889 354.043C718.406 370.531 720.378 379.775 723.895 396.263L726.167 411.735C726.475 413.891 726.264 416.088 725.552 418.146C724.839 420.203 723.646 422.061 722.071 423.564C716.634 429.002 709.329 440.402 709.329 440.402L700.708 414.466C700.708 414.466 709.354 413.101 707.988 407.186C706.623 401.271 707.082 390.348 707.082 390.348L714.889 354.043Z" fill="#68A1AC"></path><path d="M662.46 469.528C662.919 475.896 670.652 499.131 670.652 499.131L676.089 518.229C680.002 531.731 682.021 545.712 682.088 559.77C682.088 564.434 682.517 569.237 683.828 572.85C687.453 582.861 680.204 596.514 680.204 596.514C686.571 607.89 697.494 600.139 697.494 600.139V592.847C697.494 592.847 706.146 553.257 703.874 545.524C701.602 537.791 700.708 516.851 700.708 516.851V479.086C708.003 471.819 712.436 462.168 713.196 451.899C713.305 450.407 713.396 448.842 713.45 447.217C713.818 436.946 706.804 424.918 704.061 420.634C703.397 419.601 702.986 419.015 702.986 419.015L662.804 434.953L662.713 434.989V436.548V439.985L662.46 469.528Z" fill="#2B44FF"></path><path opacity="0.1" d="M676.112 327.094C677.34 329.147 678.274 331.361 678.885 333.673C681.11 334.518 683.482 334.909 685.86 334.822C688.239 334.734 690.575 334.171 692.732 333.166C693.298 329.828 694.616 326.663 696.587 323.91L676.112 327.094Z" fill="black"></path><path d="M685.211 333.927C675.408 333.927 667.461 325.98 667.461 316.177C667.461 306.374 675.408 298.427 685.211 298.427C695.014 298.427 702.961 306.374 702.961 316.177C702.961 325.98 695.014 333.927 685.211 333.927Z" fill="#FFB8B8"></path><path d="M667.479 347.575C667.479 347.575 692.95 332.102 701.142 338.47L712.519 353.036C712.519 353.036 708.851 352.888 707.486 367.448L709.244 392.141L707.486 400.359C707.486 400.359 697.928 409.458 705.674 422.658C705.674 422.658 681.556 442.68 662.441 438.584L663.806 417.197C663.806 417.197 667.902 405.368 660.622 394.445C653.342 383.522 660.169 373.058 666.99 368.962C667.008 368.962 670.198 351.671 667.479 347.575Z" fill="#89C5CC"></path><path d="M666.102 440.402C666.102 440.402 656.545 442.215 651.995 449.507C650.682 451.696 649.079 453.698 647.229 455.458C646.817 455.838 646.498 456.308 646.299 456.832C646.099 457.356 646.024 457.92 646.079 458.478C646.134 459.036 646.318 459.573 646.616 460.048C646.914 460.523 647.318 460.923 647.797 461.215C651.421 463.384 657.294 464.719 664.713 458.605C677.478 448.141 666.102 440.402 666.102 440.402Z" fill="#FFB8B8"></path><path opacity="0.1" d="M680.209 356.219C680.209 356.219 689.307 355.307 691.585 378.947C693.863 402.588 697.5 408.074 697.5 408.074C697.5 408.074 699.777 420.356 694.316 427.636C688.854 434.916 678.39 450.388 678.39 450.388C678.39 450.388 667.008 453.578 664.737 442.202L678.844 415.807C678.844 415.807 681.115 406.708 675.66 400.334C670.204 393.961 666.102 351.67 680.209 356.219Z" fill="black"></path><path d="M679.296 354.854C679.296 354.854 688.4 353.942 690.672 377.607C692.944 401.271 696.587 406.739 696.587 406.739C696.587 406.739 698.864 419.021 693.403 426.301C687.941 433.581 677.477 449.029 677.477 449.029C677.477 449.029 666.101 452.219 663.824 440.843L677.93 414.466C677.93 414.466 680.208 405.367 674.747 398.993C669.285 392.62 665.189 350.305 679.296 354.854Z" fill="#89C5CC"></path><path opacity="0.1" d="M671.786 371.915C671.786 371.915 670.88 386.022 674.976 393.762C679.072 401.501 679.072 411.505 674.976 416.967" fill="black"></path><path opacity="0.1" d="M669.517 354.625C669.517 354.625 673.142 351 683.624 350.529C694.106 350.058 698.637 346.904 698.637 346.904" fill="black"></path><path d="M695.271 292.331C698.038 292.669 701.198 293.618 702.194 296.222C702.452 297.217 702.654 298.225 702.799 299.243C703.832 303.212 708.308 305.067 711.069 308.105C713.486 310.788 714.579 314.413 715.371 317.953C717.648 328.085 718.206 338.527 717.02 348.843C716.132 356.389 714.32 363.82 713.812 371.402C713.305 378.984 714.229 386.959 718.373 393.327C720.186 396.064 722.506 398.468 723.769 401.483C721.159 403.603 717.558 403.899 714.199 404.02C710.284 404.145 706.369 404.145 702.454 404.02C700.4 403.954 698.255 403.821 696.485 402.776C695.173 401.941 694.096 400.784 693.356 399.417C691.114 395.617 690.552 391.049 690.643 386.639C690.734 382.229 691.44 377.849 691.519 373.438C691.561 371.022 691.374 368.484 689.997 366.521C688.994 365.101 687.477 364.146 686.178 362.992C681.309 358.679 679.635 351.749 679.472 345.243C679.309 338.736 680.385 332.223 679.835 325.735C679.617 323.197 678.669 320.146 676.174 319.657C675.382 319.5 674.542 319.657 673.793 319.355C671.787 318.581 671.981 315.73 671.413 313.688C670.773 311.368 668.791 309.574 668.229 307.229C666.918 301.726 673.926 295.146 678.5 293.231C683.236 291.256 690.353 291.721 695.271 292.331Z" fill="#FF9B21"></path><path opacity="0.9" d="M514.45 189.402H511.43C510.538 189.402 509.814 190.126 509.814 191.018V239.304C509.814 240.196 510.538 240.92 511.43 240.92H514.45C515.342 240.92 516.065 240.196 516.065 239.304V191.018C516.065 190.126 515.342 189.402 514.45 189.402Z" fill="#2A2947"></path><path d="M303.972 149.046H303.697C302.804 149.046 302.081 149.77 302.081 150.662V164.392C302.081 165.284 302.804 166.007 303.697 166.007H303.972C304.864 166.007 305.587 165.284 305.587 164.392V150.662C305.587 149.77 304.864 149.046 303.972 149.046Z" fill="#2A2947"></path><path d="M304.289 180.097H303.57C302.677 180.097 301.954 180.82 301.954 181.712V208C301.954 208.892 302.677 209.616 303.57 209.616H304.289C305.182 209.616 305.905 208.892 305.905 208V181.712C305.905 180.82 305.182 180.097 304.289 180.097Z" fill="#2A2947"></path><path d="M304.162 219.944H303.633C302.741 219.944 302.018 220.668 302.018 221.56V248.102C302.018 248.994 302.741 249.717 303.633 249.717H304.162C305.055 249.717 305.778 248.994 305.778 248.102V221.56C305.778 220.668 305.055 219.944 304.162 219.944Z" fill="#2A2947"></path><path opacity="0.9" d="M414.922 105.685H391.182C389.674 105.685 388.451 106.908 388.451 108.416V108.881C388.451 110.389 389.674 111.612 391.182 111.612H414.922C416.43 111.612 417.653 110.389 417.653 108.881V108.416C417.653 106.908 416.43 105.685 414.922 105.685Z" fill="#100F25"></path><path opacity="0.9" d="M425.434 112.021C427.292 112.021 428.799 110.514 428.799 108.656C428.799 106.797 427.292 105.29 425.434 105.29C423.575 105.29 422.068 106.797 422.068 108.656C422.068 110.514 423.575 112.021 425.434 112.021Z" fill="#100F25"></path><path fill-rule="evenodd" clip-rule="evenodd" d="M331.58 93.0001H485.679C500.872 93.0001 513.188 105.316 513.188 120.508V490.49C513.188 505.683 500.872 517.999 485.679 517.999H331.58C316.387 517.999 304.071 505.683 304.071 490.49V120.508C304.071 105.316 316.387 93.0001 331.58 93.0001ZM459.722 104.063H483.639C488.044 104.063 492.268 105.812 495.383 108.927C498.497 112.042 500.247 116.266 500.247 120.671V490.314C500.247 494.719 498.497 498.943 495.383 502.057C492.268 505.172 488.044 506.922 483.639 506.922H333.589C331.409 506.922 329.249 506.492 327.235 505.657C325.22 504.823 323.39 503.599 321.848 502.057C320.306 500.515 319.084 498.684 318.25 496.669C317.416 494.654 316.987 492.495 316.988 490.314V120.671C316.987 118.49 317.416 116.33 318.25 114.315C319.084 112.301 320.306 110.47 321.848 108.927C323.39 107.385 325.22 106.162 327.235 105.327C329.249 104.492 331.409 104.063 333.589 104.063H356.053V106.948C356.053 110.574 357.493 114.052 360.058 116.616C362.622 119.181 366.1 120.621 369.726 120.621H446.049C449.675 120.621 453.153 119.181 455.717 116.616C458.282 114.052 459.722 110.574 459.722 106.948V104.063Z" fill="#2A2947"></path><path opacity="0.3" d="M477.522 358.085H422.471V413.137H477.522V358.085Z" fill="#3A3768"></path><path opacity="0.3" d="M396.387 285.416H341.335V340.468H396.387V285.416Z" fill="#3A3768"></path><path opacity="0.3" d="M401.679 429.512H346.627V484.563H401.679V429.512Z" fill="#3A3768"></path><path d="M389.395 150.246H334.343V205.298H389.395V150.246Z" fill="#EBEBEB"></path><path d="M466.483 338.239L425.662 375.176L462.599 415.997L503.42 379.06L466.483 338.239Z" fill="#EBEBEB"></path><path d="M476.612 216.586H421.561V271.638H476.612V216.586Z" fill="#EBEBEB"></path><path d="M407.02 277.966H351.968V333.018H407.02V277.966Z" fill="#EBEBEB"></path><path d="M465.684 234.196C464.513 234.712 463.272 235.052 462.001 235.205C463.336 234.407 464.338 233.155 464.823 231.677C463.562 232.425 462.183 232.952 460.745 233.236C459.868 232.293 458.726 231.636 457.47 231.351C456.213 231.066 454.9 231.167 453.701 231.64C452.503 232.113 451.475 232.937 450.752 234.003C450.028 235.069 449.644 236.329 449.647 237.618C449.644 238.112 449.698 238.604 449.81 239.085C447.257 238.959 444.761 238.295 442.482 237.137C440.204 235.98 438.196 234.355 436.588 232.369C435.769 233.784 435.518 235.458 435.888 237.051C436.257 238.645 437.219 240.038 438.578 240.948C437.555 240.922 436.555 240.646 435.664 240.144V240.221C435.664 241.704 436.176 243.142 437.115 244.29C438.054 245.438 439.361 246.227 440.814 246.521C440.262 246.669 439.693 246.745 439.121 246.747C438.716 246.746 438.312 246.706 437.915 246.627C438.327 247.902 439.126 249.016 440.2 249.815C441.275 250.614 442.572 251.059 443.912 251.086C441.639 252.873 438.83 253.842 435.939 253.838C435.428 253.835 434.916 253.805 434.408 253.746C437.331 255.645 440.744 256.652 444.229 256.646C456.047 256.646 462.502 246.86 462.502 238.366C462.502 238.088 462.502 237.813 462.502 237.54C463.753 236.624 464.831 235.491 465.684 234.196Z" fill="#CB1FA2"></path><path d="M442.365 372.33L444.482 377.642L458.303 392.296L462.931 387.936L465.845 391.019L468.928 388.105L469.104 382.115L472.957 378.475L473.267 367.984L460.899 354.875L442.365 372.33ZM470.233 369.395L470.057 375.392L465.429 379.752L465.252 385.749L462.346 382.666L458.486 386.306L446.09 373.19L460.744 359.369L470.233 369.395Z" fill="#CB1FA2"></path><path d="M458.98 366.77L461.294 364.59L467.164 370.806L464.85 372.979L458.98 366.77ZM453.583 371.864L455.897 369.677L461.76 375.9L459.446 378.08L453.583 371.864Z" fill="#E3227A"></path><path d="M384.499 294.666C385.903 294.67 387.249 295.229 388.241 296.222C389.234 297.215 389.794 298.561 389.797 299.965V310.547C389.794 311.952 389.234 313.297 388.241 314.29C387.249 315.283 385.903 315.842 384.499 315.846H373.916C372.511 315.843 371.165 315.286 370.17 314.294C369.675 313.804 369.282 313.22 369.014 312.577C368.747 311.934 368.609 311.244 368.611 310.547V299.965C368.614 298.559 369.175 297.213 370.169 296.22C371.164 295.227 372.511 294.668 373.916 294.666H384.499ZM384.499 292.55H373.916C371.949 292.555 370.065 293.339 368.674 294.73C367.283 296.12 366.5 298.005 366.494 299.972V310.555C366.5 312.521 367.283 314.406 368.674 315.797C370.065 317.187 371.949 317.971 373.916 317.977H384.499C386.461 317.971 388.341 317.191 389.731 315.807C391.121 314.422 391.908 312.545 391.921 310.583V300C391.921 298.029 391.14 296.138 389.749 294.742C388.358 293.345 386.47 292.557 384.499 292.55Z" fill="#CB1FA2"></path><path d="M386.086 299.979C385.771 299.98 385.461 299.888 385.198 299.713C384.935 299.539 384.729 299.29 384.608 298.998C384.486 298.706 384.454 298.385 384.515 298.075C384.577 297.765 384.729 297.48 384.952 297.257C385.175 297.034 385.46 296.882 385.77 296.82C386.08 296.759 386.401 296.791 386.693 296.913C386.985 297.034 387.233 297.24 387.408 297.503C387.583 297.766 387.675 298.076 387.674 298.392C387.675 298.6 387.634 298.807 387.555 299C387.476 299.193 387.359 299.368 387.211 299.516C387.063 299.664 386.888 299.781 386.695 299.86C386.502 299.939 386.295 299.98 386.086 299.979ZM379.222 301.016C380.059 301.016 380.877 301.264 381.574 301.729C382.27 302.195 382.812 302.856 383.133 303.629C383.453 304.403 383.537 305.254 383.374 306.075C383.21 306.896 382.807 307.65 382.215 308.242C381.623 308.834 380.869 309.238 380.048 309.401C379.226 309.564 378.375 309.48 377.602 309.16C376.828 308.84 376.167 308.297 375.702 307.601C375.237 306.905 374.989 306.086 374.989 305.249C374.989 304.126 375.435 303.05 376.229 302.256C377.022 301.462 378.099 301.016 379.222 301.016ZM379.222 298.9C377.966 298.9 376.738 299.272 375.694 299.97C374.65 300.667 373.836 301.659 373.355 302.819C372.875 303.98 372.749 305.256 372.994 306.488C373.239 307.72 373.844 308.851 374.732 309.739C375.62 310.627 376.751 311.232 377.983 311.477C379.215 311.722 380.491 311.596 381.652 311.116C382.812 310.635 383.804 309.821 384.501 308.777C385.199 307.733 385.571 306.505 385.571 305.249C385.571 303.565 384.902 301.95 383.712 300.759C382.521 299.568 380.906 298.9 379.222 298.9Z" fill="#CB1FA2"></path><path d="M361.583 162.734C358.158 162.703 354.828 163.86 352.16 166.007C349.492 168.155 347.65 171.161 346.948 174.513C346.246 177.865 346.728 181.357 348.31 184.395C349.893 187.432 352.478 189.827 355.628 191.173C355.565 190.031 355.65 188.886 355.882 187.766C356.171 186.559 357.794 179.673 357.794 179.673C357.469 178.936 357.305 178.137 357.314 177.331C357.314 175.13 358.591 173.486 360.179 173.486C361.533 173.486 362.182 174.502 362.182 175.715C362.182 177.07 361.314 179.102 360.87 180.978C360.781 181.327 360.775 181.691 360.853 182.043C360.931 182.394 361.09 182.722 361.318 183C361.546 183.278 361.837 183.499 362.166 183.644C362.495 183.789 362.853 183.855 363.212 183.836C366.034 183.836 367.918 180.224 367.918 175.941C367.918 172.689 365.724 170.262 361.745 170.262C360.793 170.227 359.844 170.386 358.955 170.728C358.066 171.071 357.256 171.589 356.573 172.253C355.89 172.917 355.349 173.712 354.981 174.591C354.614 175.47 354.428 176.414 354.436 177.366C354.389 178.426 354.739 179.464 355.416 180.28C355.537 180.376 355.623 180.508 355.661 180.657C355.699 180.806 355.688 180.964 355.628 181.106C355.557 181.381 355.395 182.037 355.325 182.298C355.312 182.378 355.28 182.455 355.231 182.521C355.183 182.587 355.12 182.64 355.046 182.676C354.973 182.713 354.893 182.732 354.811 182.731C354.729 182.73 354.649 182.71 354.577 182.672C352.503 181.825 351.536 179.553 351.536 177.028C351.536 172.794 355.064 167.757 362.119 167.757C367.763 167.757 371.516 171.856 371.516 176.259C371.516 182.079 368.278 186.432 363.502 186.432C362.792 186.452 362.088 186.294 361.456 185.971C360.823 185.648 360.282 185.171 359.882 184.584C359.882 184.584 359.014 187.998 358.831 188.662C358.49 189.788 357.989 190.86 357.342 191.844C358.717 192.246 360.143 192.451 361.575 192.45C365.516 192.451 369.296 190.887 372.083 188.101C374.87 185.315 376.436 181.536 376.437 177.596C376.438 173.655 374.874 169.875 372.088 167.088C369.302 164.301 365.523 162.735 361.583 162.734Z" fill="#CB1FA2"></path><path opacity="0.1" d="M504.726 386.059L501.199 386.426L500.804 385.72C501.28 385.177 501.93 384.816 502.643 384.699C503.356 384.582 504.087 384.716 504.712 385.078L504.726 386.059Z" fill="black"></path><path d="M178.23 589.065L169.551 589.643L170.708 498.805H192.116L178.23 589.065Z" fill="#FFB8B8"></path><path d="M219.888 589.065L211.209 589.643L212.366 498.805L226.212 498.808L219.888 589.065Z" fill="#A0616A"></path><path d="M229.145 579.228C220.06 583.371 211.521 583.16 203.393 579.668L199.058 475.661L186.643 578.758C177.564 581.004 168.388 580.994 159.136 579.228C161.267 563.784 170.364 469.762 169.55 452.517L230.302 449.624L229.145 579.228Z" fill="#5C63AB"></path><path d="M176.677 612.868C175.481 612.868 174.297 612.623 173.199 612.149C172.1 611.675 171.11 610.981 170.29 610.111C169.469 609.24 168.835 608.211 168.427 607.086C168.018 605.962 167.844 604.766 167.915 603.571L168.752 589.424C172.124 583.379 176.216 583.355 180.985 588.987L185.023 601.369C185.453 602.686 185.564 604.087 185.348 605.456C185.133 606.825 184.596 608.124 183.782 609.246C182.968 610.368 181.899 611.281 180.665 611.91C179.43 612.54 178.063 612.868 176.677 612.868Z" fill="#2F2E41"></path><path d="M217.757 612.868C216.561 612.868 215.377 612.623 214.279 612.149C213.18 611.675 212.19 610.981 211.37 610.111C210.549 609.24 209.915 608.211 209.507 607.086C209.098 605.962 208.924 604.766 208.995 603.571L209.832 589.424C213.204 583.379 217.296 583.355 222.065 588.987L226.103 601.369C226.533 602.686 226.644 604.087 226.428 605.456C226.213 606.825 225.676 608.124 224.862 609.246C224.048 610.368 222.979 611.281 221.745 611.91C220.51 612.54 219.143 612.868 217.757 612.868Z" fill="#2F2E41"></path><path d="M203.387 341.243C214.687 341.243 223.847 332.082 223.847 320.783C223.847 309.483 214.687 300.323 203.387 300.323C192.087 300.323 182.927 309.483 182.927 320.783C182.927 332.082 192.087 341.243 203.387 341.243Z" fill="#FFB8B8"></path><path d="M232.038 453.674L167.236 455.41C168.025 424.294 166.64 392.276 163.392 359.486C163.028 355.79 163.895 352.076 165.858 348.923C167.822 345.771 170.772 343.355 174.25 342.052L180.543 339.692L206.001 346.635L218.016 355.846C219.626 357.085 220.904 358.702 221.736 360.555C222.569 362.407 222.929 364.437 222.786 366.462C220.967 393.026 225.029 422.597 232.038 453.674Z" fill="#3F3D56"></path><path d="M239.264 475.59C237.538 475.69 235.841 475.124 234.52 474.009C233.2 472.894 232.357 471.316 232.167 469.598L230.734 456.7L238.39 454.567L244.711 465.469C245.289 466.466 245.602 467.594 245.62 468.746C245.638 469.899 245.361 471.036 244.815 472.051C244.269 473.066 243.472 473.924 242.5 474.543C241.528 475.163 240.414 475.523 239.264 475.59Z" fill="#A0616A"></path><path d="M245.924 457.724L230.881 458.303L219.309 412.016L216.416 354.735C219.064 355.066 221.526 356.269 223.414 358.155C225.302 360.04 226.509 362.501 226.844 365.148L232.038 406.23L245.924 457.724Z" fill="#3F3D56"></path><path opacity="0.2" d="M174.468 371.804L173.89 409.991L199.348 452.806L176.783 408.833L174.468 371.804Z" fill="black"></path><path opacity="0.2" d="M166.786 429.48L181.875 455.41L176.528 455.121L166.786 429.48Z" fill="black"></path><path d="M201.738 424.435C201.034 424.436 200.359 424.716 199.862 425.214C199.364 425.711 199.084 426.386 199.083 427.09V591.708C199.084 592.412 199.364 593.087 199.862 593.585C200.359 594.083 201.034 594.363 201.738 594.363H371.666C372.37 594.363 373.045 594.083 373.542 593.585C374.04 593.087 374.32 592.412 374.321 591.708V427.09C374.32 426.386 374.04 425.711 373.542 425.214C373.045 424.716 372.37 424.436 371.666 424.435L201.738 424.435Z" fill="#E6E6E6"></path><path d="M205.736 587.71H367.667V431.089H205.736V587.71Z" fill="white"></path><path d="M322.47 469.215H251.477C250.303 469.215 249.177 469.681 248.347 470.511C247.517 471.341 247.051 472.466 247.051 473.64V544.636C247.051 545.809 247.517 546.935 248.347 547.764C249.177 548.594 250.303 549.061 251.477 549.061H286.885V517.445H277.347V505.808H287.062V497.202C287.062 486.914 294.21 481.295 303.416 481.295C307.842 481.295 312.578 481.627 313.662 481.781V492.534H306.337C301.336 492.534 300.362 494.901 300.362 498.397V505.808H312.29L310.741 517.445H300.34V549.038H322.47C323.644 549.038 324.77 548.572 325.6 547.742C326.43 546.912 326.896 545.787 326.896 544.614V473.64C326.896 472.466 326.43 471.341 325.6 470.511C324.77 469.681 323.644 469.215 322.47 469.215Z" fill="#CB1FA2"></path><path d="M203.31 472.739C201.755 473.494 199.97 473.624 198.323 473.102C196.676 472.58 195.291 471.446 194.456 469.933L188.179 458.575L194.427 453.665L204.451 461.302C205.368 462 206.09 462.922 206.55 463.979C207.009 465.036 207.19 466.193 207.076 467.339C206.961 468.486 206.555 469.584 205.896 470.53C205.237 471.475 204.346 472.235 203.31 472.739Z" fill="#FFB8B8"></path><path d="M199.058 454.252L186.329 461.195L157.4 411.437L154.066 367.68C153.692 362.77 154.914 357.871 157.549 353.712C160.184 349.553 164.093 346.356 168.692 344.597L172.443 343.163L174.758 409.122L199.058 454.252Z" fill="#3F3D56"></path><path d="M220.775 298.403L221.001 301.802L219.254 297.134C214.862 293.934 209.611 292.13 204.183 291.955L204.183 291.955C200.959 291.633 197.704 292.102 194.701 293.321C191.697 294.541 189.035 296.474 186.943 298.954C184.851 301.434 183.392 304.387 182.692 307.558C181.992 310.729 182.073 314.023 182.926 317.156L183.169 320.077L188.781 312.344H188.781C191.308 310.047 194.387 308.446 197.716 307.698C201.045 306.95 204.51 307.079 207.774 308.074C210.226 308.824 212.584 309.854 214.802 311.143C218.186 313.174 221.24 315.713 223.856 318.671L224.344 315.349C227.62 309.172 225.67 302.901 220.775 298.403Z" fill="#2A2947"></path><path d="M613.545 469.3C614.38 468.387 615.004 467.303 615.374 466.123C615.744 464.944 615.851 463.697 615.687 462.472C615.523 461.246 615.092 460.072 614.425 459.031C613.759 457.989 612.871 457.107 611.827 456.446L597.648 380.735L580.403 387.129L599.763 459.54C598.769 461.369 598.48 463.499 598.951 465.527C599.422 467.554 600.621 469.339 602.319 470.541C604.018 471.744 606.099 472.282 608.168 472.054C610.237 471.825 612.15 470.845 613.545 469.3Z" fill="#A0616A"></path><path d="M475.946 353.772C475.989 354.243 475.995 354.715 475.964 355.186L509.492 380.992L519 377.088L526.768 390.667L510.608 399.215C509.302 399.905 507.808 400.154 506.349 399.922C504.89 399.691 503.546 398.994 502.518 397.933L469.004 363.382C467.23 363.782 465.376 363.632 463.689 362.953C462.002 362.274 460.562 361.097 459.56 359.58C458.558 358.062 458.042 356.275 458.08 354.457C458.118 352.639 458.709 350.875 459.774 349.401C460.839 347.927 462.328 346.812 464.042 346.205C465.756 345.597 467.615 345.526 469.37 346.001C471.126 346.475 472.695 347.473 473.87 348.861C475.045 350.25 475.769 351.963 475.946 353.772H475.946Z" fill="#A0616A"></path><path d="M554.027 604.402H544.468L539.919 574.064L554.029 574.065L554.027 604.402Z" fill="#A0616A"></path><path d="M590.713 605.107H580.675L575.899 574.064L590.715 574.065L590.713 605.107Z" fill="#A0616A"></path><path fill-rule="evenodd" clip-rule="evenodd" d="M590.975 602.482C592.053 602.023 593.328 602.498 593.718 603.603C594.282 605.201 594.949 607.359 594.949 608.619C594.949 610.8 594.223 614.984 594.223 614.984C591.696 614.984 548.795 614.984 548.795 614.984C548.795 614.984 547.024 609.124 550.84 608.657C554.655 608.189 557.178 607.813 557.178 607.813L578.109 598.472C578.624 598.242 579.227 598.483 579.442 599.004L580.723 602.115C580.723 602.115 584.254 603.764 586.463 603.764C587.69 603.764 589.558 603.085 590.975 602.482Z" fill="#CFCFCF"></path><path d="M542.622 597.88C541.741 597.881 540.891 597.553 540.239 596.96C539.588 596.367 539.181 595.552 539.099 594.675L530.688 481.556L531.086 481.523L588.965 476.766L588.981 477.177L593.582 594.359C593.599 594.835 593.521 595.31 593.351 595.755C593.181 596.2 592.923 596.606 592.593 596.949C592.262 597.293 591.866 597.565 591.428 597.752C590.989 597.938 590.518 598.034 590.041 598.034H578.693C577.845 598.038 577.025 597.737 576.382 597.185C575.739 596.633 575.316 595.868 575.191 595.03L559.78 500.368C559.765 500.27 559.714 500.182 559.636 500.12C559.559 500.059 559.461 500.028 559.363 500.036C559.264 500.043 559.172 500.087 559.104 500.159C559.036 500.231 558.998 500.326 558.998 500.425L558.299 593.89C558.291 594.792 557.94 595.658 557.316 596.311C556.693 596.964 555.844 597.354 554.942 597.402L542.812 597.875C542.748 597.879 542.685 597.88 542.622 597.88Z" fill="#2F2E41"></path><path d="M559.673 344.77C572.142 344.77 582.25 334.82 582.25 322.546C582.25 310.273 572.142 300.323 559.673 300.323C547.205 300.323 537.097 310.273 537.097 322.546C537.097 334.82 547.205 344.77 559.673 344.77Z" fill="#A0616A"></path><path fill-rule="evenodd" clip-rule="evenodd" d="M554.287 602.482C555.365 602.023 556.641 602.498 557.031 603.603C557.594 605.201 558.262 607.359 558.262 608.619C558.262 610.8 557.536 614.984 557.536 614.984C555.008 614.984 512.108 614.984 512.108 614.984C512.108 614.984 510.337 609.124 514.152 608.657C517.967 608.189 520.491 607.813 520.491 607.813L541.422 598.472C541.937 598.242 542.539 598.483 542.754 599.004L544.035 602.115C544.035 602.115 547.567 603.764 549.775 603.764C551.003 603.764 552.871 603.085 554.287 602.482Z" fill="#E3E3E3"></path><path d="M556.246 488.769C547.795 488.744 539.385 487.595 531.236 485.351C530.452 485.123 529.771 484.632 529.307 483.96C528.843 483.288 528.625 482.476 528.689 481.662C531.292 442.541 531.904 412.182 526.43 391.177C524.098 382.224 525.157 372.795 529.336 365.308C535.626 354.04 547.187 347.182 559.519 347.419C560.109 347.43 560.704 347.451 561.305 347.482C580.02 348.446 594.603 365.377 593.814 385.224L590.049 479.826C590.035 480.516 589.818 481.187 589.423 481.754C589.029 482.32 588.475 482.757 587.833 483.01C577.735 486.809 567.035 488.76 556.246 488.769Z" fill="#DB2721"></path><path d="M529.611 398.441L515.128 380.693C514.716 380.188 514.417 379.6 514.253 378.97C514.089 378.339 514.062 377.68 514.175 377.038C514.288 376.396 514.539 375.786 514.909 375.25C515.279 374.713 515.76 374.263 516.32 373.929L535.939 362.239C538.535 360.145 541.855 359.165 545.172 359.515C548.488 359.865 551.531 361.516 553.632 364.107C555.733 366.697 556.721 370.014 556.38 373.332C556.038 376.649 554.395 379.696 551.81 381.804L536.477 398.63C536.038 399.111 535.5 399.493 534.9 399.748C534.3 400.003 533.653 400.125 533.001 400.108C532.35 400.09 531.709 399.932 531.125 399.644C530.54 399.356 530.024 398.946 529.611 398.441Z" fill="#FF4133"></path><path d="M575.172 396.214C574.577 395.948 574.047 395.556 573.617 395.066C573.187 394.576 572.868 394 572.681 393.375L566.161 371.564C564.746 368.544 564.586 365.086 565.717 361.948C566.848 358.81 569.177 356.249 572.194 354.826C575.21 353.403 578.668 353.235 581.809 354.358C584.949 355.481 587.516 357.804 588.947 360.817L601.555 379.859C601.915 380.403 602.154 381.017 602.255 381.661C602.355 382.305 602.316 382.963 602.14 383.591C601.963 384.218 601.654 384.8 601.232 385.297C600.811 385.794 600.287 386.195 599.696 386.471L578.949 396.183C578.359 396.459 577.716 396.605 577.064 396.611C576.412 396.616 575.767 396.481 575.172 396.214Z" fill="#DB2721"></path><path d="M570.829 340.932L554.266 337.14C552.557 336.749 550.505 336.003 550.268 334.265C549.95 331.931 553.308 330.305 552.998 327.969C552.698 325.707 549.639 325.416 547.457 324.748C545.426 324.035 543.751 322.559 542.788 320.633C541.825 318.707 541.649 316.481 542.297 314.428C539.937 317.755 534.545 318.04 531.483 315.344C528.422 312.649 527.835 307.758 529.673 304.116C530.666 302.327 532.068 300.798 533.763 299.653C535.458 298.508 537.4 297.78 539.429 297.527C543.511 297.064 547.637 297.833 551.277 299.736C551.52 297.158 554.738 296.112 557.327 296.089C562.705 296.152 567.93 297.89 572.274 301.062C576.618 304.234 579.866 308.682 581.565 313.787C584.742 324.027 582.617 335.251 573.729 341.243L570.829 340.932Z" fill="#2A2947"></path><defs><filter id="filter0_f" x="112.69" y="586.69" width="593.619" height="39.6194" filterUnits="userSpaceOnUse" color-interpolation-filters="sRGB"><feGaussianBlur stdDeviation="8.15485"></feGaussianBlur></filter><filter id="filter1_f" x="158.251" y="594.972" width="502.498" height="45.0559" filterUnits="userSpaceOnUse" color-interpolation-filters="sRGB"><feGaussianBlur stdDeviation="9.51399"></feGaussianBlur></filter></defs></svg>